{"title":"FakeTaxi.Scarlett.2014.xXx-ViORiX","uid":10685219,"size":616344085,"categoryP":"porn","categoryS":"movie_clips","magnet":"?xt=urn:btih:4cbf57822e7e966dc081809e8878d4d888ade75b&amp;dn=FakeTaxi.Scarlett.2014.xXx-ViORiX&amp;tr=udp%3A%2F%2Ftracker.openbittorrent.com%3A80&amp;tr=udp%3A%2F%2Fopen.demonii.com%3A1337&amp;tr=udp%3A%2F%2Ftracker.coppersurfer.tk%3A6969&amp;tr=udp%3A%2F%2Fexodus.desync.com%3A6969","seeders":1,"leechers":0,"uploader":"iH2OSO4","files":-1,"time":1407073568,"description":"There is no such thing as a free ride, and these fake taxi drivers decided to capitalize. Join their intrepid, dangerous, provocative adventurers as they drive around looking to get sex for fares that they aren't even licensed to give\n\nGeneral\nComplete name       : FakeTaxi.Scarlett.2014.xXx-ViORiX.mp4\n\nSource :     &lt;a href=&quot; http://vasileturcu.ro/i/9853875.html&quot; rel=&quot;nofollow&quot; target=&quot;_NEW&quot;&gt; http://vasileturcu.ro/i/9853875.html&lt;/a&gt;\n\n\nFormat                           : MPEG-4\nFormat profile                   : Base Media\nCodec ID                         : isom\nFile size                        : 588 MiB\nDuration                         : 35mn 35s\nOverall bit rate                 : 2 309 Kbps\nEncoded date                     : UTC 2014-08-02 08:10:14\nTagged date                      : UTC 2014-08-02 08:10:14\n\nVideo\nID                               : 1\nFormat                           : MPEG-4 Visual\nFormat profile                   : Simple@L1\nFormat settings, BVOP            : No\nFormat settings, QPel            : No\nFormat settings, GMC             : No warppoints\nFormat settings, Matrix          : Default (H.263)\nCodec ID                         : 20\nDuration                         : 35mn 35s\nBit rate mode                    : Variable\nBit rate                         : 2 175 Kbps\nMaximum bit rate                 : 10.2 Mbps\nWidth                            : 856 pixels\nHeight                           : 480 pixels\nDisplay aspect ratio             : 16:9\nFrame rate mode                  : Constant\nFrame rate                       : 24.000 fps\nColor space                      : YUV\nChroma subsampling               : 4:2:0\nBit depth                        : 8 bits\nScan type                        : Progressive\nCompression mode                 : Lossy\nBits/(Pixel*Frame)               : 0.221\nStream size                      : 554 MiB (94%)\nWriting library                  : Lavc53.8.0\nEncoded date                     : UTC 2014-08-02 08:10:14\nTagged date                      : UTC 2014-08-02 08:10:49\n\nAudio\nID                               : 2\nFormat                           : AAC\nFormat/Info                      : Advanced Audio Codec\nFormat profile                   : LC\nCodec ID                         : 40\nDuration                         : 35mn 35s\nBit rate mode                    : Variable\nBit rate                         : 132.3 Kbps\nMaximum bit rate                 : 161 Kbps\nChannel(s)                       : 2 channels\nChannel positions                : Front: L R\nSampling rate                    : 44.1 KHz\nCompression mode                 : Lossy\nStream size                      : 33.4 MiB (6%)\nEncoded date                     : UTC 2014-08-02 08:10:39\nTagged date                      : UTC 2014-08-02 08:10:49\n","torrent":{"xt":"urn:btih:4cbf57822e7e966dc081809e8878d4d888ade75b","amp;dn":"FakeTaxi.Scarlett.2014.xXx-ViORiX","amp;tr":["udp%3A%2F%2Ftracker.openbittorrent.com%3A80","udp%3A%2F%2Fopen.demonii.com%3A1337","udp%3A%2F%2Ftracker.coppersurfer.tk%3A6969","udp%3A%2F%2Fexodus.desync.com%3A6969"],"infoHash":"4cbf57822e7e966dc081809e8878d4d888ade75b","infoHashBuffer":{"type":"Buffer","data":[76,191,87,130,46,126,150,109,192,129,128,158,136,120,212,216,136,173,231,91]},"announce":[],"urlList":[]}}